<svg width="95" height="37" viewBox="0 0 95 37" fill="none" xmlns="http://www.w3.org/2000/svg">
  <title>Stape</title>
  <path d="M23.4304 2.03743L14.262 17.3181L23.4304 23.4304V33.6175H0V29.5427L8.14971 15.2807L0 9.16842V0H23.4304V2.03743Z" fill="white" fill-opacity="0.5"/>
  <path d="M29.5577 8.26212L26.6433 9.98916C26.0985 9.0434 25.5793 8.4266 25.0859 8.13876C24.5719 7.8098 23.9088 7.64532 23.0967 7.64532C22.0995 7.64532 21.272 7.92802 20.6141 8.49342C19.9562 9.04854 19.6272 9.74758 19.6272 10.5905C19.6272 11.7522 20.4907 12.6877 22.2178 13.397L24.5924 14.3684C26.5251 15.1497 27.9386 16.1058 28.8329 17.2366C29.7273 18.3571 30.1745 19.7346 30.1745 21.3691C30.1745 23.5587 29.4446 25.368 27.9848 26.7969C26.5148 28.2361 24.6901 28.9557 22.5107 28.9557C20.4445 28.9557 18.738 28.3441 17.3913 27.1208C16.0652 25.8974 15.2377 24.1755 14.9087 21.9551L18.5478 21.1532C18.7123 22.5513 19.0001 23.5176 19.4113 24.0522C20.1515 25.0802 21.2309 25.5942 22.6495 25.5942C23.77 25.5942 24.7004 25.219 25.4405 24.4685C26.1807 23.7181 26.5508 22.7672 26.5508 21.6158C26.5508 21.1532 26.484 20.7317 26.3503 20.3514C26.227 19.9607 26.0265 19.6061 25.7489 19.2874C25.4817 18.9584 25.1321 18.6552 24.7004 18.3776C24.2686 18.0898 23.7546 17.8174 23.1584 17.5604L20.8608 16.6043C17.602 15.2268 15.9727 13.2119 15.9727 10.5597C15.9727 8.77098 16.6563 7.27525 18.0235 6.07249C19.3908 4.85945 21.0921 4.25293 23.1275 4.25293C25.8723 4.25293 28.0157 5.58933 29.5577 8.26212Z" fill="white"/>
  <path d="M37.977 16.7431V28.524H34.5075V16.7431H33.0272V13.5049H34.5075V7.99998H37.977V13.5049H40.6755V16.7431H37.977Z" fill="white"/>
  <path d="M54.3838 13.5049H57.8688V28.524H54.3838V26.9511C52.9549 28.2875 51.4181 28.9557 49.7733 28.9557C47.6967 28.9557 45.9799 28.2053 44.623 26.7044C43.2763 25.1727 42.603 23.2606 42.603 20.9682C42.603 18.7169 43.2763 16.8408 44.623 15.3399C45.9697 13.839 47.6556 13.0886 49.6807 13.0886C51.4283 13.0886 52.996 13.8082 54.3838 15.2474V13.5049ZM46.1496 20.9682C46.1496 22.4074 46.5351 23.5793 47.3061 24.4839C48.0976 25.3989 49.0948 25.8563 50.2975 25.8563C51.5825 25.8563 52.6208 25.4143 53.4124 24.5302C54.2039 23.6153 54.5997 22.4536 54.5997 21.0453C54.5997 19.6369 54.2039 18.4753 53.4124 17.5604C52.6208 16.666 51.5928 16.2188 50.3284 16.2188C49.1359 16.2188 48.1387 16.6712 47.3369 17.5758C46.5453 18.4907 46.1496 19.6215 46.1496 20.9682Z" fill="white"/>
  <path d="M65.7175 36.6966H62.248V13.5049H65.7175V15.1394C67.0848 13.7722 68.637 13.0886 70.3744 13.0886C72.4406 13.0886 74.142 13.8493 75.4784 15.3707C76.8353 16.8819 77.5138 18.7888 77.5138 21.0915C77.5138 23.3429 76.8405 25.219 75.4938 26.7198C74.1574 28.2104 72.4715 28.9557 70.436 28.9557C68.6782 28.9557 67.1053 28.2516 65.7175 26.8432V36.6966ZM73.9672 21.107C73.9672 19.6678 73.5766 18.4958 72.7953 17.5912C72.0037 16.6763 71.0066 16.2188 69.8038 16.2188C68.5291 16.2188 67.496 16.6609 66.7044 17.5449C65.9128 18.429 65.5171 19.5907 65.5171 21.0299C65.5171 22.4382 65.9128 23.5999 66.7044 24.5148C67.4857 25.4091 68.5137 25.8563 69.7884 25.8563C70.9912 25.8563 71.9832 25.404 72.7645 24.4994C73.5663 23.5947 73.9672 22.4639 73.9672 21.107Z" fill="white"/>
  <path d="M94.8613 21.8317H84.0981C84.1907 23.0653 84.5916 24.047 85.3009 24.7769C86.0102 25.4965 86.92 25.8563 88.0302 25.8563C88.8937 25.8563 89.6082 25.6507 90.1736 25.2395C90.7287 24.8283 91.3609 24.0676 92.0703 22.9574L95.0001 24.5919C94.5477 25.3629 94.0697 26.0259 93.566 26.5811C93.0623 27.1259 92.5226 27.5782 91.9469 27.938C91.3712 28.2875 90.7493 28.5445 90.0811 28.709C89.4129 28.8735 88.6881 28.9557 87.9069 28.9557C85.6658 28.9557 83.8668 28.2361 82.5099 26.7969C81.1529 25.3475 80.4744 23.4251 80.4744 21.0299C80.4744 18.6552 81.1324 16.7328 82.4482 15.2628C83.7743 13.8133 85.5322 13.0886 87.7218 13.0886C89.932 13.0886 91.6796 13.7928 92.9646 15.2011C94.2393 16.5992 94.8767 18.537 94.8767 21.0144L94.8613 21.8317ZM91.2993 18.9944C90.8161 17.144 89.6493 16.2188 87.7989 16.2188C87.3774 16.2188 86.9817 16.2857 86.6116 16.4193C86.2415 16.5427 85.9023 16.7277 85.5939 16.9744C85.2958 17.2109 85.0388 17.4987 84.8229 17.8379C84.607 18.1772 84.4425 18.5627 84.3294 18.9944H91.2993Z" fill="white"/>
</svg>
